<svg width="16" height="16" viewBox="0 0 16 16" fill="none" xmlns="http://www.w3.org/2000/svg">
<rect x="0.5" y="0.5" width="15" height="15" rx="7.5" stroke="#90959E"/>
<path d="M7.393 9.877C7.393 9.64967 7.415 9.44067 7.459 9.25C7.503 9.05933 7.569 8.876 7.657 8.7C7.745 8.524 7.86233 8.35167 8.009 8.183C8.15567 8.007 8.33167 7.82367 8.537 7.633C8.72033 7.46433 8.87067 7.31767 8.988 7.193C9.10533 7.061 9.197 6.93633 9.263 6.819C9.33633 6.70167 9.38767 6.588 9.417 6.478C9.44633 6.36067 9.461 6.23233 9.461 6.093C9.461 5.85833 9.417 5.642 9.329 5.444C9.24833 5.23867 9.13467 5.06633 8.988 4.927C8.84133 4.78033 8.66533 4.66667 8.46 4.586C8.25467 4.50533 8.031 4.465 7.789 4.465C6.69633 4.465 6.095 5.114 5.985 6.412H5.215C5.24433 5.56867 5.48267 4.91233 5.93 4.443C6.38467 3.96633 7.00433 3.728 7.789 3.728C8.14833 3.728 8.47833 3.78667 8.779 3.904C9.087 4.02133 9.351 4.18633 9.571 4.399C9.791 4.61167 9.96333 4.86467 10.088 5.158C10.2127 5.45133 10.275 5.77033 10.275 6.115C10.275 6.47433 10.2017 6.79333 10.055 7.072C9.90833 7.35067 9.65167 7.655 9.285 7.985C9.07967 8.17567 8.90367 8.35167 8.757 8.513C8.61767 8.667 8.504 8.81733 8.416 8.964C8.328 9.11067 8.262 9.25733 8.218 9.404C8.18133 9.55067 8.163 9.70833 8.163 9.877H7.393ZM7.371 10.614H8.185V12H7.371V10.614Z" fill="#90959E"/>
</svg>
