<svg width="24" height="25" viewBox="0 0 24 25" fill="none" xmlns="http://www.w3.org/2000/svg">
<path d="M2 12.8008C2 7.27793 6.47715 2.80078 12 2.80078C13.5671 2.80078 15.0532 3.16202 16.376 3.80664C16.8721 4.04865 17.0786 4.64724 16.8369 5.14355C16.595 5.64003 15.9955 5.84643 15.499 5.60449C14.4432 5.09006 13.2568 4.80078 12 4.80078C7.58172 4.80078 4 8.3825 4 12.8008C4 17.2191 7.58172 20.8008 12 20.8008C16.4183 20.8008 20 17.2191 20 12.8008C20 12.2485 20.4477 11.8008 21 11.8008C21.5523 11.8008 22 12.2485 22 12.8008C22 18.3236 17.5228 22.8008 12 22.8008C6.47715 22.8008 2 18.3236 2 12.8008ZM18.6055 6.46875C18.996 6.07823 19.629 6.07823 20.0195 6.46875C20.4101 6.85927 20.4101 7.49229 20.0195 7.88281L12.1445 15.7578C11.754 16.1483 11.121 16.1483 10.7305 15.7578L8.48047 13.5078C8.08994 13.1173 8.08994 12.4843 8.48047 12.0938C8.87099 11.7032 9.50401 11.7032 9.89453 12.0938L11.4375 13.6367L18.6055 6.46875Z" fill="#45B4FD"/>
</svg>
