<svg width="24" height="24" viewBox="0 0 24 24" fill="none" xmlns="http://www.w3.org/2000/svg">
<path fill-rule="evenodd" clip-rule="evenodd" d="M12.0502 23.7938H12.0453C10.0453 23.7931 8.08018 23.2937 6.33478 22.3462L0 24L1.69529 17.8374C0.649554 16.0338 0.099291 13.9879 0.100188 11.8919C0.102809 5.33474 5.4635 0 12.0501 0C15.2468 0.00137308 18.2472 1.23989 20.5033 3.48784C22.7594 5.73568 24.0013 8.72361 24 11.9013C23.9974 18.4569 18.6388 23.7911 12.0502 23.7938ZM6.62825 20.1931L6.99094 20.4074C8.51589 21.308 10.2639 21.7845 12.0462 21.7852H12.0502C17.5246 21.7852 21.9801 17.3508 21.9823 11.9005C21.9833 9.25924 20.9512 6.7758 19.076 4.90739C17.2008 3.03897 14.707 2.00951 12.0541 2.00859C6.57555 2.00859 2.11993 6.44249 2.11776 11.8925C2.11698 13.7602 2.64209 15.5792 3.63632 17.1529L3.87248 17.5269L2.86911 21.1745L6.62825 20.1931ZM18.0705 14.7291C17.9959 14.6051 17.7969 14.5308 17.4983 14.382C17.1997 14.2332 15.7317 13.5145 15.458 13.4152C15.1843 13.3161 14.9852 13.2665 14.7862 13.5639C14.5871 13.8614 14.0149 14.5308 13.8407 14.7291C13.6666 14.9274 13.4924 14.9522 13.1939 14.8035C12.8953 14.6547 11.9332 14.341 10.7927 13.3286C9.90507 12.5406 9.30583 11.5675 9.13166 11.27C8.95749 10.9725 9.11309 10.8118 9.26257 10.6636C9.3969 10.5304 9.56118 10.3164 9.71046 10.143C9.85974 9.96949 9.9095 9.84546 10.009 9.64728C10.1086 9.44887 10.0588 9.2754 9.98414 9.12665C9.9095 8.9779 9.31236 7.51523 9.06355 6.92023C8.82116 6.3408 8.57501 6.41929 8.39175 6.41014C8.21778 6.40144 8.01851 6.39961 7.81948 6.39961C7.62044 6.39961 7.29694 6.47398 7.02325 6.77148C6.74957 7.06898 5.97823 7.7879 5.97823 9.25046C5.97823 10.7131 7.04812 12.1261 7.19743 12.3244C7.34671 12.5228 9.30287 15.5242 12.2981 16.8114C13.0105 17.1176 13.5666 17.3004 14.0003 17.4373C14.7156 17.6636 15.3665 17.6316 15.8809 17.5551C16.4547 17.4698 17.6475 16.8363 17.8964 16.1422C18.1451 15.448 18.1451 14.853 18.0705 14.7291Z" fill="#1A1F25"/>
</svg>
