<svg width="16" height="17" viewBox="0 0 16 17" fill="none" xmlns="http://www.w3.org/2000/svg">
<path d="M3.2 2.1C3.2 2.98366 2.48366 3.7 1.6 3.7C0.716344 3.7 0 2.98366 0 2.1C0 1.21634 0.716344 0.5 1.6 0.5C2.48366 0.5 3.2 1.21634 3.2 2.1Z" fill="#1A1F25"/>
<path d="M9.6 2.1C9.6 2.98366 8.88366 3.7 8 3.7C7.11634 3.7 6.4 2.98366 6.4 2.1C6.4 1.21634 7.11634 0.5 8 0.5C8.88366 0.5 9.6 1.21634 9.6 2.1Z" fill="#1A1F25"/>
<path d="M16 2.1C16 2.98366 15.2837 3.7 14.4 3.7C13.5163 3.7 12.8 2.98366 12.8 2.1C12.8 1.21634 13.5163 0.5 14.4 0.5C15.2837 0.5 16 1.21634 16 2.1Z" fill="#1A1F25"/>
<path d="M3.2 8.5C3.2 9.38366 2.48366 10.1 1.6 10.1C0.716344 10.1 0 9.38366 0 8.5C0 7.61634 0.716344 6.9 1.6 6.9C2.48366 6.9 3.2 7.61634 3.2 8.5Z" fill="#1A1F25"/>
<path d="M9.6 8.5C9.6 9.38366 8.88366 10.1 8 10.1C7.11634 10.1 6.4 9.38366 6.4 8.5C6.4 7.61634 7.11634 6.9 8 6.9C8.88366 6.9 9.6 7.61634 9.6 8.5Z" fill="#1A1F25"/>
<path d="M16 8.5C16 9.38366 15.2837 10.1 14.4 10.1C13.5163 10.1 12.8 9.38366 12.8 8.5C12.8 7.61634 13.5163 6.9 14.4 6.9C15.2837 6.9 16 7.61634 16 8.5Z" fill="#1A1F25"/>
<path d="M3.2 14.9C3.2 15.7837 2.48366 16.5 1.6 16.5C0.716344 16.5 0 15.7837 0 14.9C0 14.0163 0.716344 13.3 1.6 13.3C2.48366 13.3 3.2 14.0163 3.2 14.9Z" fill="#1A1F25"/>
<path d="M9.6 14.9C9.6 15.7837 8.88366 16.5 8 16.5C7.11634 16.5 6.4 15.7837 6.4 14.9C6.4 14.0163 7.11634 13.3 8 13.3C8.88366 13.3 9.6 14.0163 9.6 14.9Z" fill="#1A1F25"/>
<path d="M16 14.9C16 15.7837 15.2837 16.5 14.4 16.5C13.5163 16.5 12.8 15.7837 12.8 14.9C12.8 14.0163 13.5163 13.3 14.4 13.3C15.2837 13.3 16 14.0163 16 14.9Z" fill="#1A1F25"/>
</svg>
