<svg aria-hidden="true" xmlns="http://www.w3.org/2000/svg" xmlns:xlink="http://www.w3.org/1999/xlink"><symbol viewBox="0 0 30 16" fill="none" id="icon-burger" xmlns="http://www.w3.org/2000/svg">
<rect width="30" height="2" fill="currentColor"/>
<rect y="7" width="30" height="2" fill="currentColor"/>
<rect y="14" width="30" height="2" fill="currentColor"/>
</symbol><symbol viewBox="0 0 24 25" fill="none" id="icon-check-circle" xmlns="http://www.w3.org/2000/svg">
<path d="M2 12.8008C2 7.27793 6.47715 2.80078 12 2.80078C13.5671 2.80078 15.0532 3.16202 16.376 3.80664C16.8721 4.04865 17.0786 4.64724 16.8369 5.14355C16.595 5.64003 15.9955 5.84643 15.499 5.60449C14.4432 5.09006 13.2568 4.80078 12 4.80078C7.58172 4.80078 4 8.3825 4 12.8008C4 17.2191 7.58172 20.8008 12 20.8008C16.4183 20.8008 20 17.2191 20 12.8008C20 12.2485 20.4477 11.8008 21 11.8008C21.5523 11.8008 22 12.2485 22 12.8008C22 18.3236 17.5228 22.8008 12 22.8008C6.47715 22.8008 2 18.3236 2 12.8008ZM18.6055 6.46875C18.996 6.07823 19.629 6.07823 20.0195 6.46875C20.4101 6.85927 20.4101 7.49229 20.0195 7.88281L12.1445 15.7578C11.754 16.1483 11.121 16.1483 10.7305 15.7578L8.48047 13.5078C8.08994 13.1173 8.08994 12.4843 8.48047 12.0938C8.87099 11.7032 9.50401 11.7032 9.89453 12.0938L11.4375 13.6367L18.6055 6.46875Z" fill="currentColor"/>
</symbol><symbol viewBox="0 0 24 24" fill="none" id="icon-close" xmlns="http://www.w3.org/2000/svg">
<path d="M19.9999 19.9999L12 12M12 12L4 4M12 12L20 4M12 12L4 20" stroke="currentColor" stroke-width="2" stroke-linecap="round" stroke-linejoin="round"/>
</symbol><symbol viewBox="0 0 14 7" fill="none" id="icon-down" xmlns="http://www.w3.org/2000/svg">
<path d="M7 7L-9.53674e-07 0.700968L0.778973 -5.77909e-07L7 5.59806L13.221 -3.405e-08L14 0.700968L7 7Z" fill="currentColor"/>
</symbol><symbol viewBox="0 0 24 44" fill="none" id="icon-next" xmlns="http://www.w3.org/2000/svg">
<path d="M0 1.50236L20.9317 22L0 42.4976L1.53417 44L24 22L1.53417 0L0 1.50236Z" fill="currentColor"/>
</symbol><symbol viewBox="0 0 40 40" fill="none" id="icon-play" xmlns="http://www.w3.org/2000/svg">
<path d="M40 20L10 37.3205L10 2.67949L40 20Z" fill="currentColor"/>
</symbol><symbol viewBox="0 0 16 17" fill="none" id="icon-points" xmlns="http://www.w3.org/2000/svg">
<path d="M3.2 2.1C3.2 2.98366 2.48366 3.7 1.6 3.7C0.716344 3.7 0 2.98366 0 2.1C0 1.21634 0.716344 0.5 1.6 0.5C2.48366 0.5 3.2 1.21634 3.2 2.1Z" fill="currentColor"/>
<path d="M9.6 2.1C9.6 2.98366 8.88366 3.7 8 3.7C7.11634 3.7 6.4 2.98366 6.4 2.1C6.4 1.21634 7.11634 0.5 8 0.5C8.88366 0.5 9.6 1.21634 9.6 2.1Z" fill="currentColor"/>
<path d="M16 2.1C16 2.98366 15.2837 3.7 14.4 3.7C13.5163 3.7 12.8 2.98366 12.8 2.1C12.8 1.21634 13.5163 0.5 14.4 0.5C15.2837 0.5 16 1.21634 16 2.1Z" fill="currentColor"/>
<path d="M3.2 8.5C3.2 9.38366 2.48366 10.1 1.6 10.1C0.716344 10.1 0 9.38366 0 8.5C0 7.61634 0.716344 6.9 1.6 6.9C2.48366 6.9 3.2 7.61634 3.2 8.5Z" fill="currentColor"/>
<path d="M9.6 8.5C9.6 9.38366 8.88366 10.1 8 10.1C7.11634 10.1 6.4 9.38366 6.4 8.5C6.4 7.61634 7.11634 6.9 8 6.9C8.88366 6.9 9.6 7.61634 9.6 8.5Z" fill="currentColor"/>
<path d="M16 8.5C16 9.38366 15.2837 10.1 14.4 10.1C13.5163 10.1 12.8 9.38366 12.8 8.5C12.8 7.61634 13.5163 6.9 14.4 6.9C15.2837 6.9 16 7.61634 16 8.5Z" fill="currentColor"/>
<path d="M3.2 14.9C3.2 15.7837 2.48366 16.5 1.6 16.5C0.716344 16.5 0 15.7837 0 14.9C0 14.0163 0.716344 13.3 1.6 13.3C2.48366 13.3 3.2 14.0163 3.2 14.9Z" fill="currentColor"/>
<path d="M9.6 14.9C9.6 15.7837 8.88366 16.5 8 16.5C7.11634 16.5 6.4 15.7837 6.4 14.9C6.4 14.0163 7.11634 13.3 8 13.3C8.88366 13.3 9.6 14.0163 9.6 14.9Z" fill="currentColor"/>
<path d="M16 14.9C16 15.7837 15.2837 16.5 14.4 16.5C13.5163 16.5 12.8 15.7837 12.8 14.9C12.8 14.0163 13.5163 13.3 14.4 13.3C15.2837 13.3 16 14.0163 16 14.9Z" fill="currentColor"/>
</symbol><symbol viewBox="0 0 24 44" fill="none" id="icon-prev" xmlns="http://www.w3.org/2000/svg">
<path d="M24 1.50236L3.06834 22L24 42.4976L22.4658 44L0 22L22.4658 0L24 1.50236Z" fill="currentColor"/>
</symbol><symbol viewBox="0 0 16 16" fill="none" id="icon-question" xmlns="http://www.w3.org/2000/svg">
<rect x="0.5" y="0.5" width="15" height="15" rx="7.5" stroke="currentColor"/>
<path d="M7.393 9.877C7.393 9.64967 7.415 9.44067 7.459 9.25C7.503 9.05933 7.569 8.876 7.657 8.7C7.745 8.524 7.86233 8.35167 8.009 8.183C8.15567 8.007 8.33167 7.82367 8.537 7.633C8.72033 7.46433 8.87067 7.31767 8.988 7.193C9.10533 7.061 9.197 6.93633 9.263 6.819C9.33633 6.70167 9.38767 6.588 9.417 6.478C9.44633 6.36067 9.461 6.23233 9.461 6.093C9.461 5.85833 9.417 5.642 9.329 5.444C9.24833 5.23867 9.13467 5.06633 8.988 4.927C8.84133 4.78033 8.66533 4.66667 8.46 4.586C8.25467 4.50533 8.031 4.465 7.789 4.465C6.69633 4.465 6.095 5.114 5.985 6.412H5.215C5.24433 5.56867 5.48267 4.91233 5.93 4.443C6.38467 3.96633 7.00433 3.728 7.789 3.728C8.14833 3.728 8.47833 3.78667 8.779 3.904C9.087 4.02133 9.351 4.18633 9.571 4.399C9.791 4.61167 9.96333 4.86467 10.088 5.158C10.2127 5.45133 10.275 5.77033 10.275 6.115C10.275 6.47433 10.2017 6.79333 10.055 7.072C9.90833 7.35067 9.65167 7.655 9.285 7.985C9.07967 8.17567 8.90367 8.35167 8.757 8.513C8.61767 8.667 8.504 8.81733 8.416 8.964C8.328 9.11067 8.262 9.25733 8.218 9.404C8.18133 9.55067 8.163 9.70833 8.163 9.877H7.393ZM7.371 10.614H8.185V12H7.371V10.614Z" fill="currentColor"/>
</symbol><symbol viewBox="0 0 23 22" fill="none" id="icon-rotate" xmlns="http://www.w3.org/2000/svg">
<path d="M22.3334 22L20.3778 20.5V3.33819L2.49136 21.2247L1.10872 19.842L18.9952 1.95556H1.83337L0.333374 0H22.3334V22Z" fill="currentColor"/>
</symbol><symbol fill="currentColor" viewBox="0 0 256 256" id="icon-tel" xmlns="http://www.w3.org/2000/svg"><path d="M222.37,158.46l-47.11-21.11-.13-.06a16,16,0,0,0-15.17,1.4,8.12,8.12,0,0,0-.75.56L134.87,160c-15.42-7.49-31.34-23.29-38.83-38.51l20.78-24.71c.2-.25.39-.5.57-.77a16,16,0,0,0,1.32-15.06l0-.12L97.54,33.64a16,16,0,0,0-16.62-9.52A56.26,56.26,0,0,0,32,80c0,79.4,64.6,144,144,144a56.26,56.26,0,0,0,55.88-48.92A16,16,0,0,0,222.37,158.46ZM176,208A128.14,128.14,0,0,1,48,80,40.2,40.2,0,0,1,82.87,40a.61.61,0,0,0,0,.12l21,47L83.2,111.86a6.13,6.13,0,0,0-.57.77,16,16,0,0,0-1,15.7c9.06,18.53,27.73,37.06,46.46,46.11a16,16,0,0,0,15.75-1.14,8.44,8.44,0,0,0,.74-.56L168.89,152l47,21.05h0s.08,0,.11,0A40.21,40.21,0,0,1,176,208Z"/></symbol><symbol viewBox="0 0 24 24" fill="none" id="icon-tg" xmlns="http://www.w3.org/2000/svg">
<path fill-rule="evenodd" clip-rule="evenodd" d="M9.40213 15.1987L18.2964 21.7276C19.3114 22.284 20.0439 21.9959 20.2967 20.7913L23.9171 3.84053C24.2878 2.36401 23.3507 1.69433 22.3797 2.13231L1.12058 10.2769C-0.33055 10.8552 -0.32209 11.6595 0.856072 12.018L6.31164 13.7097L18.9419 5.79286C19.5381 5.43363 20.0853 5.62676 19.6362 6.02281" fill="currentColor"/>
</symbol><symbol viewBox="0 0 16 13" fill="none" id="icon-vector" xmlns="http://www.w3.org/2000/svg">
<path d="M16 6.55567L0 12.5L2.35135 6.58711L0.039656 0.5L16 6.55567Z" fill="currentColor"/>
</symbol><symbol viewBox="0 0 24 24" fill="none" id="icon-wh" xmlns="http://www.w3.org/2000/svg">
<path fill-rule="evenodd" clip-rule="evenodd" d="M12.0502 23.7938H12.0453C10.0453 23.7931 8.08018 23.2937 6.33478 22.3462L0 24L1.69529 17.8374C0.649554 16.0338 0.099291 13.9879 0.100188 11.8919C0.102809 5.33474 5.4635 0 12.0501 0C15.2468 0.00137308 18.2472 1.23989 20.5033 3.48784C22.7594 5.73568 24.0013 8.72361 24 11.9013C23.9974 18.4569 18.6388 23.7911 12.0502 23.7938ZM6.62825 20.1931L6.99094 20.4074C8.51589 21.308 10.2639 21.7845 12.0462 21.7852H12.0502C17.5246 21.7852 21.9801 17.3508 21.9823 11.9005C21.9833 9.25924 20.9512 6.7758 19.076 4.90739C17.2008 3.03897 14.707 2.00951 12.0541 2.00859C6.57555 2.00859 2.11993 6.44249 2.11776 11.8925C2.11698 13.7602 2.64209 15.5792 3.63632 17.1529L3.87248 17.5269L2.86911 21.1745L6.62825 20.1931ZM18.0705 14.7291C17.9959 14.6051 17.7969 14.5308 17.4983 14.382C17.1997 14.2332 15.7317 13.5145 15.458 13.4152C15.1843 13.3161 14.9852 13.2665 14.7862 13.5639C14.5871 13.8614 14.0149 14.5308 13.8407 14.7291C13.6666 14.9274 13.4924 14.9522 13.1939 14.8035C12.8953 14.6547 11.9332 14.341 10.7927 13.3286C9.90507 12.5406 9.30583 11.5675 9.13166 11.27C8.95749 10.9725 9.11309 10.8118 9.26257 10.6636C9.3969 10.5304 9.56118 10.3164 9.71046 10.143C9.85974 9.96949 9.9095 9.84546 10.009 9.64728C10.1086 9.44887 10.0588 9.2754 9.98414 9.12665C9.9095 8.9779 9.31236 7.51523 9.06355 6.92023C8.82116 6.3408 8.57501 6.41929 8.39175 6.41014C8.21778 6.40144 8.01851 6.39961 7.81948 6.39961C7.62044 6.39961 7.29694 6.47398 7.02325 6.77148C6.74957 7.06898 5.97823 7.7879 5.97823 9.25046C5.97823 10.7131 7.04812 12.1261 7.19743 12.3244C7.34671 12.5228 9.30287 15.5242 12.2981 16.8114C13.0105 17.1176 13.5666 17.3004 14.0003 17.4373C14.7156 17.6636 15.3665 17.6316 15.8809 17.5551C16.4547 17.4698 17.6475 16.8363 17.8964 16.1422C18.1451 15.448 18.1451 14.853 18.0705 14.7291Z" fill="currentColor"/>
</symbol></svg>