<svg width="61" height="60" viewBox="0 0 61 60" fill="none" xmlns="http://www.w3.org/2000/svg">
<path d="M56.0914 51.9195L55.9499 50.9295L56.0914 51.9195ZM46.9766 53.2218L46.8351 52.2318H46.8351L46.9766 53.2218ZM46.89 37.6803L46.8188 38.6778L46.89 37.6803ZM49.843 37.8913L49.9142 36.8938L49.843 37.8913ZM51.1488 41.9006L51.1035 40.9016L51.1488 41.9006ZM51.9779 41.863L52.0231 42.862L51.9779 41.863ZM56.0048 38.3315L56.0761 37.334L56.0048 38.3315ZM24.5119 37.4913L24.6376 38.4833L24.5119 37.4913ZM31.2741 36.6343L31.3449 35.6368L31.2464 35.6298L31.1484 35.6423L31.2741 36.6343ZM31.2741 55.6429L31.0284 56.6123L31.2195 56.6607L31.4147 56.633L31.2741 55.6429ZM24.3638 53.8915L24.1181 54.8609L24.3638 53.8915ZM44.2154 53.8045L44.0748 52.8144L44.2154 53.8045ZM37.7582 41.8255L37.7131 40.8265L37.7582 41.8255ZM39.276 41.7571L39.321 42.7561L39.276 41.7571ZM40.4705 37.2876L40.5414 36.2901H40.5414L40.4705 37.2876ZM44.1293 37.5474L44.2002 36.5499L44.1293 37.5474ZM24.8328 37.0758L24.6983 36.0849L24.8328 37.0758ZM43.9493 37.1667L43.8741 38.1639L43.9493 37.1667ZM31.2294 18.893L31.4716 17.9227C31.3924 17.9029 31.3111 17.893 31.2294 17.893V18.893ZM24.2144 21.4078L24.5773 22.3397L24.2144 21.4078ZM44.2851 22.1511L44.0429 23.1213C44.0579 23.1251 44.0729 23.1284 44.088 23.1315L44.2851 22.1511ZM39.1328 24.6544L39.2763 23.6648L39.1328 24.6544ZM37.615 24.4343L37.4715 25.424L37.615 24.4343ZM50.9892 27.234L50.8452 28.2236H50.8452L50.9892 27.234ZM51.8183 27.3548L51.9624 26.3652L51.8183 27.3548ZM46.6721 37.0906L46.5966 38.0878L46.6721 37.0906ZM56.0544 37.8008L55.979 38.798L56.0544 37.8008ZM56.3327 25.3077L56.0896 26.2777C56.1046 26.2815 56.1197 26.2849 56.1348 26.2879L56.3327 25.3077ZM47.0651 22.9853L47.3082 22.0153L47.0651 22.9853ZM29.4169 4.70096L29.9169 5.56699L29.9169 5.56699L29.4169 4.70096ZM6.16695 18.1243L5.66695 17.2583L6.16695 18.1243ZM2.29199 19.2069C1.8137 19.483 1.64982 20.0946 1.92597 20.5729C2.20211 21.0512 2.8137 21.215 3.29199 20.9389L2.79199 20.0729L2.29199 19.2069ZM21.5419 52.143C22.0942 52.143 22.5419 51.6952 22.5419 51.143C22.5419 50.5907 22.0942 50.143 21.5419 50.143V51.143V52.143ZM22.2919 27.768C22.8442 27.768 23.2919 27.3202 23.2919 26.768C23.2919 26.2157 22.8442 25.768 22.2919 25.768V26.768V27.768ZM30.9169 4.70096L30.4169 5.56699V5.56699L30.9169 4.70096ZM54.167 18.1243L54.667 17.2583L54.167 18.1243ZM57.0419 20.9389C57.5202 21.215 58.1318 21.0512 58.408 20.5729C58.6841 20.0946 58.5202 19.483 58.0419 19.2069L57.5419 20.0729L57.0419 20.9389ZM53.167 23.393C53.167 23.9452 53.6147 24.393 54.167 24.393C54.7193 24.393 55.167 23.9452 55.167 23.393H54.167H53.167ZM45.5521 38.9444H44.5521V51.9669H45.5521H46.5521V38.9444H45.5521ZM57.1669 39.5956H56.1669V50.6646H57.1669H58.1669V39.5956H57.1669ZM56.0914 51.9195L55.9499 50.9295L46.8351 52.2318L46.9766 53.2218L47.118 54.2117L56.2328 52.9094L56.0914 51.9195ZM46.89 37.6803L46.8188 38.6778L49.7717 38.8887L49.843 37.8913L49.9142 36.8938L46.9613 36.6829L46.89 37.6803ZM49.843 37.8913H48.843V40.6346H49.843H50.843V37.8913H49.843ZM51.1488 41.9006L51.194 42.8996L52.0231 42.862L51.9779 41.863L51.9326 40.864L51.1035 40.9016L51.1488 41.9006ZM49.843 37.8913L49.7717 38.8887L53.1008 39.1266L53.172 38.1291L53.2433 37.1317L49.9142 36.8938L49.843 37.8913ZM53.172 38.1291L53.1008 39.1266L55.9335 39.3289L56.0048 38.3315L56.0761 37.334L53.2433 37.1317L53.172 38.1291ZM53.172 40.597H54.172V38.1291H53.172H52.172V40.597H53.172ZM51.9779 41.863L52.0231 42.862C53.2372 42.807 54.172 41.7975 54.172 40.597H53.172H52.172C52.172 40.7523 52.0544 40.8585 51.9326 40.864L51.9779 41.863ZM49.843 40.6346H48.843C48.843 41.9129 49.8993 42.9582 51.194 42.8996L51.1488 41.9006L51.1035 40.9016C50.9752 40.9074 50.843 40.8005 50.843 40.6346H49.843ZM57.1669 39.5956H58.1669C58.1669 38.4172 57.2655 37.419 56.0761 37.334L56.0048 38.3315L55.9335 39.3289C56.0534 39.3375 56.1669 39.4433 56.1669 39.5956H57.1669ZM57.1669 50.6646H56.1669C56.1669 50.8088 56.064 50.9132 55.9499 50.9295L56.0914 51.9195L56.2328 52.9094C57.3525 52.7494 58.1669 51.7835 58.1669 50.6646H57.1669ZM45.5521 51.9669H44.5521C44.5521 53.3299 45.7477 54.4075 47.118 54.2117L46.9766 53.2218L46.8351 52.2318C46.7008 52.251 46.5521 52.1444 46.5521 51.9669H45.5521ZM45.5521 38.9444H46.5521C46.5521 38.7755 46.6887 38.6685 46.8188 38.6778L46.89 37.6803L46.9613 36.6829C45.645 36.5888 44.5521 37.6435 44.5521 38.9444H45.5521ZM24.5119 37.4913L24.6376 38.4833L31.3998 37.6264L31.2741 36.6343L31.1484 35.6423L24.3862 36.4992L24.5119 37.4913ZM31.2741 36.6343H30.2741V55.6429H31.2741H32.2741V36.6343H31.2741ZM31.2741 55.6429L31.5198 54.6736L24.6095 52.9222L24.3638 53.8915L24.1181 54.8609L31.0284 56.6123L31.2741 55.6429ZM23.4169 52.6621H24.4169V38.7487H23.4169H22.4169V52.6621H23.4169ZM45.2919 38.8116H44.2919V52.5495H45.2919H46.2919V38.8116H45.2919ZM44.2154 53.8045L44.0748 52.8144L31.1334 54.6529L31.2741 55.6429L31.4147 56.633L44.3561 54.7946L44.2154 53.8045ZM31.2741 36.6343L31.2032 37.6318L36.3818 37.9997L36.4527 37.0022L36.5235 36.0047L31.3449 35.6368L31.2741 36.6343ZM36.4527 37.0022H35.4527V40.5595H36.4527H37.4527V37.0022H36.4527ZM37.7582 41.8255L37.8032 42.8245L39.321 42.7561L39.276 41.7571L39.231 40.7581L37.7131 40.8265L37.7582 41.8255ZM36.4527 37.0022L36.3818 37.9997L40.3997 38.285L40.4705 37.2876L40.5414 36.2901L36.5235 36.0047L36.4527 37.0022ZM40.4705 37.2876L40.3997 38.285L44.0585 38.5449L44.1293 37.5474L44.2002 36.5499L40.5414 36.2901L40.4705 37.2876ZM40.4705 40.4911H41.4705V37.2876H40.4705H39.4705V40.4911H40.4705ZM39.276 41.7571L39.321 42.7561C40.5354 42.7014 41.4705 41.6918 41.4705 40.4911H40.4705H39.4705C39.4705 40.6464 39.3529 40.7526 39.231 40.7581L39.276 41.7571ZM36.4527 40.5595H35.4527C35.4527 41.8376 36.5086 42.8828 37.8032 42.8245L37.7582 41.8255L37.7131 40.8265C37.5848 40.8323 37.4527 40.7254 37.4527 40.5595H36.4527ZM45.2919 38.8116H46.2919C46.2919 37.6329 45.39 36.6345 44.2002 36.5499L44.1293 37.5474L44.0585 38.5449C44.1783 38.5534 44.2919 38.6593 44.2919 38.8116H45.2919ZM24.3638 53.8915L24.6095 52.9222C24.5048 52.8957 24.4169 52.7945 24.4169 52.6621H23.4169H22.4169C22.4169 53.6928 23.1098 54.6054 24.1181 54.8609L24.3638 53.8915ZM45.2919 52.5495H44.2919C44.2919 52.6938 44.1889 52.7982 44.0748 52.8144L44.2154 53.8045L44.3561 54.7946C45.4765 54.6354 46.2919 53.6691 46.2919 52.5495H45.2919ZM24.5119 37.4913L24.3862 36.4992C23.2505 36.6431 22.4169 37.6165 22.4169 38.7487H23.4169H24.4169C24.4169 38.6027 24.5222 38.498 24.6376 38.4833L24.5119 37.4913ZM36.5419 20.2187H35.5419V23.1798H36.5419H37.5419V20.2187H36.5419ZM37.615 24.4343L37.4715 25.424L38.9893 25.6441L39.1328 24.6544L39.2763 23.6648L37.7585 23.4447L37.615 24.4343ZM40.5598 23.3999H41.5598V21.2214H40.5598H39.5598V23.3999H40.5598ZM24.8328 37.0758L24.9672 38.0668L31.3639 37.1988L31.2294 36.2079L31.095 35.2169L24.6983 36.0849L24.8328 37.0758ZM31.2294 36.2079L31.1543 37.205L43.8741 38.1639L43.9493 37.1667L44.0244 36.1696L31.3046 35.2107L31.2294 36.2079ZM45.2919 35.903H46.2919V23.3941H45.2919H44.2919V35.903H45.2919ZM31.2294 18.893H30.2294V36.2079H31.2294H32.2294V18.893H31.2294ZM31.2294 18.893V17.893C31.0132 17.893 30.7666 17.9607 30.6374 17.9964C30.4566 18.0463 30.2351 18.1154 29.9888 18.1967C29.4939 18.3599 28.8583 18.5856 28.1653 18.8392C26.7771 19.3472 25.1286 19.9787 23.8515 20.476L24.2144 21.4078L24.5773 22.3397C25.8484 21.8446 27.4827 21.2187 28.8526 20.7174C29.5387 20.4663 30.1509 20.2492 30.6154 20.096C30.8487 20.019 31.0347 19.9615 31.1696 19.9243C31.356 19.8728 31.3333 19.893 31.2294 19.893V18.893ZM23.4169 22.5875H22.4169V35.8198H23.4169H24.4169V22.5875H23.4169ZM44.2851 22.1511L44.5272 21.1808L31.4716 17.9227L31.2294 18.893L30.9873 19.8632L44.0429 23.1213L44.2851 22.1511ZM45.2919 23.3941H46.2919C46.2919 22.3223 45.5434 21.384 44.4822 21.1707L44.2851 22.1511L44.088 23.1315C44.1972 23.1534 44.2919 23.2563 44.2919 23.3941H45.2919ZM43.9493 37.1667L43.8741 38.1639C45.1935 38.2634 46.2919 37.2073 46.2919 35.903H45.2919H44.2919C44.2919 36.0724 44.1547 36.1794 44.0244 36.1696L43.9493 37.1667ZM24.2144 21.4078L23.8515 20.476C22.9772 20.8165 22.4169 21.6616 22.4169 22.5875H23.4169H24.4169C24.4169 22.4674 24.4885 22.3742 24.5773 22.3397L24.2144 21.4078ZM24.8328 37.0758L24.6983 36.0849C24.5644 36.1031 24.4169 35.9964 24.4169 35.8198H23.4169H22.4169C22.4169 37.1765 23.602 38.252 24.9672 38.0668L24.8328 37.0758ZM39.1328 24.6544L38.9893 25.6441C40.3611 25.843 41.5598 24.7647 41.5598 23.3999H40.5598H39.5598C39.5598 23.5776 39.4108 23.6842 39.2763 23.6648L39.1328 24.6544ZM36.5419 23.1798H35.5419C35.5419 24.297 36.3539 25.2619 37.4715 25.424L37.615 24.4343L37.7585 23.4447C37.6446 23.4281 37.5419 23.3238 37.5419 23.1798H36.5419ZM49.9169 23.7H48.9169V25.9797H49.9169H50.9169V23.7H49.9169ZM50.9892 27.234L50.8452 28.2236L51.6742 28.3443L51.8183 27.3548L51.9624 26.3652L51.1333 26.2445L50.9892 27.234ZM53.246 26.1004H54.246V24.5342H53.246H52.246V26.1004H53.246ZM46.6721 37.0906L46.5966 38.0878L55.979 38.798L56.0544 37.8008L56.1299 36.8037L46.7476 36.0935L46.6721 37.0906ZM57.1669 36.7494H58.1669V26.3419H57.1669H56.1669V36.7494H57.1669ZM45.5152 24.2155H44.5152V35.8269H45.5152H46.5152V24.2155H45.5152ZM56.3327 25.3077L56.5758 24.3377L53.4891 23.5642L53.246 24.5342L53.003 25.5042L56.0896 26.2777L56.3327 25.3077ZM53.246 24.5342L53.4891 23.5642L50.16 22.73L49.9169 23.7L49.6739 24.67L53.003 25.5042L53.246 24.5342ZM49.9169 23.7L50.16 22.73L47.3082 22.0153L47.0651 22.9853L46.822 23.9553L49.6739 24.67L49.9169 23.7ZM57.1669 26.3419H58.1669C58.1669 25.3748 57.4939 24.5219 56.5306 24.3275L56.3327 25.3077L56.1348 26.2879C56.1391 26.2888 56.1457 26.2912 56.1533 26.3007C56.1611 26.3103 56.1669 26.3239 56.1669 26.3419H57.1669ZM56.0544 37.8008L55.979 38.798C57.1785 38.8888 58.1669 37.9257 58.1669 36.7494H57.1669H56.1669C56.1669 36.7623 56.1645 36.7709 56.1617 36.7772C56.1587 36.7842 56.1542 36.7904 56.149 36.7953C56.1439 36.8002 56.1396 36.8023 56.1375 36.803C56.1364 36.8034 56.1347 36.8041 56.1299 36.8037L56.0544 37.8008ZM51.8183 27.3548L51.6742 28.3443C53.0464 28.5441 54.246 27.4657 54.246 26.1004H53.246H52.246C52.246 26.2782 52.0969 26.3848 51.9624 26.3652L51.8183 27.3548ZM49.9169 25.9797H48.9169C48.9169 27.0963 49.7282 28.061 50.8452 28.2236L50.9892 27.234L51.1333 26.2445C51.0195 26.2279 50.9169 26.1236 50.9169 25.9797H49.9169ZM45.5152 24.2155H46.5152C46.5152 24.0253 46.6825 23.9204 46.822 23.9553L47.0651 22.9853L47.3082 22.0153C45.8715 21.6553 44.5152 22.7597 44.5152 24.2155H45.5152ZM46.6721 37.0906L46.7476 36.0935C46.6281 36.0844 46.5152 35.9787 46.5152 35.8269H45.5152H44.5152C44.5152 37.0017 45.4112 37.998 46.5966 38.0878L46.6721 37.0906ZM29.4169 4.70096L28.9169 3.83494L5.66695 17.2583L6.16695 18.1243L6.66695 18.9904L29.9169 5.56699L29.4169 4.70096ZM6.16695 18.1243L5.66695 17.2583L2.29199 19.2069L2.79199 20.0729L3.29199 20.9389L6.66695 18.9904L6.16695 18.1243ZM6.16695 18.1243H5.16695V49.643H6.16695H7.16695V18.1243H6.16695ZM7.66695 51.143V52.143H17.0419V51.143V50.143H7.66695V51.143ZM17.0419 51.143V52.143H21.5419V51.143V50.143H17.0419V51.143ZM17.0419 51.143H18.0419V28.268H17.0419H16.0419V51.143H17.0419ZM18.5419 26.768V27.768H22.2919V26.768V25.768H18.5419V26.768ZM30.9169 4.70096L30.4169 5.56699L53.667 18.9904L54.167 18.1243L54.667 17.2583L31.4169 3.83494L30.9169 4.70096ZM54.167 18.1243L53.667 18.9904L57.0419 20.9389L57.5419 20.0729L58.0419 19.2069L54.667 17.2583L54.167 18.1243ZM54.167 18.1243H53.167V23.393H54.167H55.167V18.1243H54.167ZM17.0419 28.268H18.0419C18.0419 27.9918 18.2658 27.768 18.5419 27.768V26.768V25.768C17.1612 25.768 16.0419 26.8872 16.0419 28.268H17.0419ZM6.16695 49.643H5.16695C5.16695 51.0237 6.28623 52.143 7.66695 52.143V51.143V50.143C7.3908 50.143 7.16695 49.9191 7.16695 49.643H6.16695ZM29.4169 4.70096L29.9169 5.56699C30.0716 5.47767 30.2622 5.47767 30.4169 5.56699L30.9169 4.70096L31.4169 3.83494C30.6434 3.38835 29.6904 3.38835 28.9169 3.83494L29.4169 4.70096Z" fill="#22538B"/>
</svg>
