<svg width="12" height="11" viewBox="0 0 12 11" fill="none" xmlns="http://www.w3.org/2000/svg">
<path d="M10.734 0.167197C11.0742 -0.100402 11.5669 -0.0403373 11.8335 0.30121C12.1 0.642765 12.0402 1.13742 11.7 1.40503C10.3976 2.42952 9.09149 4.13932 7.96446 5.9216C6.84709 7.68864 5.94622 9.46044 5.43946 10.5476C5.31738 10.8091 5.06226 10.9825 4.7751 10.9988C4.48758 11.0149 4.21429 10.8709 4.06386 10.6243C3.68656 10.006 3.00596 9.20047 2.26743 8.44023C1.53095 7.68211 0.791535 7.02623 0.32834 6.69499C-0.0234032 6.44335 -0.105333 5.95269 0.144927 5.59935C0.395674 5.24593 0.885231 5.16347 1.23726 5.41521C1.80805 5.82349 2.61994 6.55369 3.38727 7.34357C3.80533 7.77392 4.22613 8.23939 4.59882 8.69803C5.12724 7.65431 5.82903 6.36723 6.64388 5.07864C7.79633 3.25623 9.21644 1.36097 10.734 0.167197Z" fill="#22538B"/>
</svg>
