<svg width="81" height="80" viewBox="0 0 81 80" fill="none" xmlns="http://www.w3.org/2000/svg">
<path d="M75.2328 69.226L75.0914 68.236L75.2328 69.226ZM63.0798 70.9623L62.9383 69.9724L63.0798 70.9623ZM62.9643 50.2404L62.8931 51.2379H62.8931L62.9643 50.2404ZM66.9016 50.5217L66.9729 49.5243H66.9729L66.9016 50.5217ZM68.6427 55.8674L68.5974 54.8685L68.6427 55.8674ZM69.7482 55.8174L69.7934 56.8163L69.7482 55.8174ZM75.1174 51.1086L75.1887 50.1112L75.1174 51.1086ZM33.1269 49.9883L33.2526 50.9804L33.1269 49.9883ZM42.1431 48.8458L42.214 47.8483L42.1154 47.8413L42.0174 47.8537L42.1431 48.8458ZM42.1431 74.1906L41.8974 75.16L42.0886 75.2084L42.2838 75.1807L42.1431 74.1906ZM32.9294 71.8554L32.6837 72.8247L32.9294 71.8554ZM59.3982 71.7393L59.2576 70.7493L59.3982 71.7393ZM50.7885 55.7673L50.7435 54.7684H50.7435L50.7885 55.7673ZM52.8124 55.6762L52.8574 56.6751H52.8574L52.8124 55.6762ZM54.405 49.7167L54.4759 48.7192L54.405 49.7167ZM59.2834 50.0632L59.3543 49.0658L59.2834 50.0632ZM33.5547 49.4344L33.4202 48.4435L33.5547 49.4344ZM59.0433 49.5556L58.9682 50.5528L59.0433 49.5556ZM42.0836 25.1906L42.3257 24.2204C42.2465 24.2006 42.1652 24.1906 42.0836 24.1906V25.1906ZM32.7302 28.5438L33.0931 29.4756L32.7302 28.5438ZM59.4911 29.5348L59.249 30.505C59.2639 30.5088 59.2789 30.5121 59.294 30.5152L59.4911 29.5348ZM52.6214 32.8725L52.7649 31.8829L52.6214 32.8725ZM50.5976 32.5791L50.4541 33.5687L50.5976 32.5791ZM68.43 36.3121L68.2859 37.3016L68.43 36.3121ZM69.5354 36.473L69.6795 35.4835L69.5354 36.473ZM62.6738 49.4542L62.5983 50.4513L62.6738 49.4542ZM75.1836 50.4011L75.1081 51.3983L75.1836 50.4011ZM75.5546 33.7436L75.3115 34.7136C75.3265 34.7174 75.3416 34.7208 75.3567 34.7238L75.5546 33.7436ZM63.1978 30.6471L63.4409 29.6771L63.1978 30.6471ZM39.6669 6.26795L40.1669 7.13397V7.13397L39.6669 6.26795ZM8.66693 24.1658L8.16693 23.2998L8.66693 24.1658ZM3.66699 25.8978C3.1887 26.174 3.02482 26.7855 3.30097 27.2638C3.57711 27.7421 4.1887 27.906 4.66699 27.6299L4.16699 26.7638L3.66699 25.8978ZM29.1669 69.1906C29.7192 69.1906 30.1669 68.7429 30.1669 68.1906C30.1669 67.6383 29.7192 67.1906 29.1669 67.1906V68.1906V69.1906ZM30.1669 36.6906C30.7192 36.6906 31.1669 36.2429 31.1669 35.6906C31.1669 35.1383 30.7192 34.6906 30.1669 34.6906V35.6906V36.6906ZM41.6669 6.26795L41.1669 7.13397V7.13397L41.6669 6.26795ZM72.667 24.1658L73.167 23.2998L72.667 24.1658ZM76.6669 27.6299C77.1452 27.906 77.7568 27.7421 78.0329 27.2638C78.3091 26.7855 78.1452 26.174 77.6669 25.8978L77.1669 26.7638L76.6669 27.6299ZM71.667 31.1906C71.667 31.7429 72.1147 32.1906 72.667 32.1906C73.2193 32.1906 73.667 31.7429 73.667 31.1906H72.667H71.667ZM61.1805 51.9259H60.1805V69.2892H61.1805H62.1805V51.9259H61.1805ZM76.6669 52.7941H75.6669V67.5528H76.6669H77.6669V52.7941H76.6669ZM75.2328 69.226L75.0914 68.236L62.9383 69.9724L63.0798 70.9623L63.2212 71.9523L75.3743 70.2159L75.2328 69.226ZM62.9643 50.2404L62.8931 51.2379L66.8304 51.5192L66.9016 50.5217L66.9729 49.5243L63.0356 49.243L62.9643 50.2404ZM66.9016 50.5217H65.9016V54.1795H66.9016H67.9016V50.5217H66.9016ZM68.6427 55.8674L68.688 56.8664L69.7934 56.8163L69.7482 55.8174L69.7029 54.8184L68.5974 54.8685L68.6427 55.8674ZM66.9016 50.5217L66.8304 51.5192L71.2691 51.8363L71.3404 50.8388L71.4117 49.8414L66.9729 49.5243L66.9016 50.5217ZM71.3404 50.8388L71.2691 51.8363L75.0462 52.1061L75.1174 51.1086L75.1887 50.1112L71.4117 49.8414L71.3404 50.8388ZM71.3404 54.1294H72.3404V50.8388H71.3404H70.3404V54.1294H71.3404ZM69.7482 55.8174L69.7934 56.8163C71.2302 56.7512 72.3404 55.5558 72.3404 54.1294H71.3404H70.3404C70.3404 54.5106 70.0474 54.8028 69.7029 54.8184L69.7482 55.8174ZM66.9016 54.1795H65.9016C65.9016 55.6985 67.156 56.9358 68.688 56.8664L68.6427 55.8674L68.5974 54.8685C68.2319 54.885 67.9016 54.5861 67.9016 54.1795H66.9016ZM76.6669 52.7941H77.6669C77.6669 51.394 76.5963 50.2117 75.1887 50.1112L75.1174 51.1086L75.0462 52.1061C75.3842 52.1302 75.6669 52.4201 75.6669 52.7941H76.6669ZM76.6669 67.5528H75.6669C75.6669 67.9076 75.4111 68.1903 75.0914 68.236L75.2328 69.226L75.3743 70.2159C76.6995 70.0266 77.6669 68.8822 77.6669 67.5528H76.6669ZM61.1805 69.2892H60.1805C60.1805 70.9089 61.6002 72.1839 63.2212 71.9523L63.0798 70.9623L62.9383 69.9724C62.5533 70.0274 62.1805 69.7234 62.1805 69.2892H61.1805ZM61.1805 51.9259H62.1805C62.1805 51.512 62.522 51.2114 62.8931 51.2379L62.9643 50.2404L63.0356 49.243C61.4783 49.1317 60.1805 50.38 60.1805 51.9259H61.1805ZM33.1269 49.9883L33.2526 50.9804L42.2688 49.8378L42.1431 48.8458L42.0174 47.8537L33.0012 48.9963L33.1269 49.9883ZM42.1431 48.8458H41.1431V74.1906H42.1431H43.1431V48.8458H42.1431ZM42.1431 74.1906L42.3888 73.2212L33.1751 70.886L32.9294 71.8554L32.6837 72.8247L41.8974 75.16L42.1431 74.1906ZM31.6669 70.2162H32.6669V51.665H31.6669H30.6669V70.2162H31.6669ZM60.8336 51.7488H59.8336V70.066H60.8336H61.8336V51.7488H60.8336ZM59.3982 71.7393L59.2576 70.7493L42.0025 73.2005L42.1431 74.1906L42.2838 75.1807L59.5389 72.7294L59.3982 71.7393ZM42.1431 48.8458L42.0723 49.8433L48.977 50.3337L49.0479 49.3362L49.1187 48.3387L42.214 47.8483L42.1431 48.8458ZM49.0479 49.3362H48.0479V54.0794H49.0479H50.0479V49.3362H49.0479ZM50.7885 55.7673L50.8336 56.7663L52.8574 56.6751L52.8124 55.6762L52.7673 54.6772L50.7435 54.7684L50.7885 55.7673ZM49.0479 49.3362L48.977 50.3337L54.3342 50.7142L54.405 49.7167L54.4759 48.7192L49.1187 48.3387L49.0479 49.3362ZM54.405 49.7167L54.3342 50.7142L59.2126 51.0607L59.2834 50.0632L59.3543 49.0658L54.4759 48.7192L54.405 49.7167ZM54.405 53.9882H55.405V49.7167H54.405H53.405V53.9882H54.405ZM52.8124 55.6762L52.8574 56.6751C54.2944 56.6104 55.405 55.4149 55.405 53.9882H54.405H53.405C53.405 54.3695 53.1119 54.6616 52.7673 54.6772L52.8124 55.6762ZM49.0479 54.0794H48.0479C48.0479 55.5981 49.3019 56.8353 50.8336 56.7663L50.7885 55.7673L50.7435 54.7684C50.3781 54.7848 50.0479 54.4859 50.0479 54.0794H49.0479ZM60.8336 51.7488H61.8336C61.8336 50.3482 60.7624 49.1658 59.3543 49.0658L59.2834 50.0632L59.2126 51.0607C59.5507 51.0848 59.8336 51.3746 59.8336 51.7488H60.8336ZM32.9294 71.8554L33.1751 70.886C32.8849 70.8125 32.6669 70.5424 32.6669 70.2162H31.6669H30.6669C30.6669 71.4407 31.4899 72.5222 32.6837 72.8247L32.9294 71.8554ZM60.8336 70.066H59.8336C59.8336 70.421 59.5775 70.7038 59.2576 70.7493L59.3982 71.7393L59.5389 72.7294C60.8651 72.541 61.8336 71.3962 61.8336 70.066H60.8336ZM33.1269 49.9883L33.0012 48.9963C31.657 49.1666 30.6669 50.3197 30.6669 51.665H31.6669H32.6669C32.6669 51.3059 32.9287 51.0215 33.2526 50.9804L33.1269 49.9883ZM49.1669 26.9583H48.1669V30.9065H49.1669H50.1669V26.9583H49.1669ZM50.5976 32.5791L50.4541 33.5687L52.4779 33.8622L52.6214 32.8725L52.7649 31.8829L50.7411 31.5894L50.5976 32.5791ZM54.5241 31.1999H55.5241V28.2952H54.5241H53.5241V31.1999H54.5241ZM33.5547 49.4344L33.6892 50.4254L42.2181 49.2681L42.0836 48.2771L41.9491 47.2862L33.4202 48.4435L33.5547 49.4344ZM42.0836 48.2771L42.0084 49.2743L58.9682 50.5528L59.0433 49.5556L59.1185 48.5585L42.1588 47.28L42.0836 48.2771ZM60.8336 47.8706H61.8336V31.1922H60.8336H59.8336V47.8706H60.8336ZM42.0836 25.1906H41.0836V48.2771H42.0836H43.0836V25.1906H42.0836ZM42.0836 25.1906V24.1906C41.8486 24.1906 41.5648 24.2663 41.3829 24.3165C41.1495 24.3809 40.8601 24.4712 40.5338 24.5788C39.8791 24.7948 39.0354 25.0942 38.1126 25.4319C36.2647 26.1082 34.0691 26.9492 32.3673 27.6119L32.7302 28.5438L33.0931 29.4756C34.7889 28.8152 36.9703 27.9797 38.7999 27.3101C39.7158 26.9749 40.536 26.6841 41.1604 26.4781C41.4737 26.3748 41.7276 26.2961 41.9151 26.2444C42.1541 26.1784 42.1688 26.1906 42.0836 26.1906V25.1906ZM31.6669 30.1167H30.6669V47.7597H31.6669H32.6669V30.1167H31.6669ZM59.4911 29.5348L59.7332 28.5645L42.3257 24.2204L42.0836 25.1906L41.8415 26.1608L59.249 30.505L59.4911 29.5348ZM60.8336 31.1922H61.8336C61.8336 29.9187 60.9445 28.807 59.6882 28.5544L59.4911 29.5348L59.294 30.5152C59.5983 30.5763 59.8336 30.8527 59.8336 31.1922H60.8336ZM59.0433 49.5556L58.9682 50.5528C60.5292 50.6705 61.8336 49.4206 61.8336 47.8706H60.8336H59.8336C59.8336 48.2857 59.4904 48.5865 59.1185 48.5585L59.0433 49.5556ZM32.7302 28.5438L32.3673 27.6119C31.3325 28.015 30.6669 29.0165 30.6669 30.1167H31.6669H32.6669C32.6669 29.8222 32.8438 29.5727 33.0931 29.4756L32.7302 28.5438ZM33.5547 49.4344L33.4202 48.4435C33.0365 48.4956 32.6669 48.1919 32.6669 47.7597H31.6669H30.6669C30.6669 49.372 32.0741 50.6445 33.6892 50.4254L33.5547 49.4344ZM52.6214 32.8725L52.4779 33.8622C54.1007 34.0975 55.5241 32.8218 55.5241 31.1999H54.5241H53.5241C53.5241 31.6347 53.1504 31.9388 52.7649 31.8829L52.6214 32.8725ZM49.1669 30.9065H48.1669C48.1669 32.2338 49.1313 33.3769 50.4541 33.5687L50.5976 32.5791L50.7411 31.5894C50.422 31.5432 50.1669 31.2606 50.1669 30.9065H49.1669ZM67.0003 31.6H66.0003V34.6396H67.0003H68.0003V31.6H67.0003ZM68.43 36.3121L68.2859 37.3016L69.3914 37.4626L69.5354 36.473L69.6795 35.4835L68.5741 35.3225L68.43 36.3121ZM71.439 34.8005H72.439V32.7123H71.439H70.439V34.8005H71.439ZM62.6738 49.4542L62.5983 50.4513L75.1081 51.3983L75.1836 50.4011L75.2591 49.404L62.7493 48.457L62.6738 49.4542ZM76.6669 48.9992H77.6669V35.1226H76.6669H75.6669V48.9992H76.6669ZM61.1312 32.2874H60.1312V47.7692H61.1312H62.1312V32.2874H61.1312ZM75.5546 33.7436L75.7977 32.7736L71.6821 31.7423L71.439 32.7123L71.196 33.6823L75.3115 34.7136L75.5546 33.7436ZM71.439 32.7123L71.6821 31.7423L67.2433 30.6299L67.0003 31.6L66.7572 32.57L71.196 33.6823L71.439 32.7123ZM67.0003 31.6L67.2433 30.6299L63.4409 29.6771L63.1978 30.6471L62.9547 31.6171L66.7572 32.57L67.0003 31.6ZM76.6669 35.1226H77.6669C77.6669 33.9877 76.8774 32.9905 75.7524 32.7634L75.5546 33.7436L75.3567 34.7238C75.5248 34.7578 75.6669 34.9154 75.6669 35.1226H76.6669ZM75.1836 50.4011L75.1081 51.3983C76.5079 51.5042 77.6669 50.3798 77.6669 48.9992H76.6669H75.6669C75.6669 49.2535 75.4609 49.4193 75.2591 49.404L75.1836 50.4011ZM69.5354 36.473L69.3914 37.4626C71.0147 37.6989 72.439 36.423 72.439 34.8005H71.439H70.439C70.439 35.2355 70.0651 35.5396 69.6795 35.4835L69.5354 36.473ZM67.0003 34.6396H66.0003C66.0003 35.9663 66.9639 37.1091 68.2859 37.3016L68.43 36.3121L68.5741 35.3225C68.2551 35.2761 68.0003 34.9936 68.0003 34.6396H67.0003ZM61.1312 32.2874H62.1312C62.1312 31.8228 62.5525 31.5163 62.9547 31.6171L63.1978 30.6471L63.4409 29.6771C61.7415 29.2512 60.1312 30.5572 60.1312 32.2874H61.1312ZM62.6738 49.4542L62.7493 48.457C62.4123 48.4315 62.1312 48.1421 62.1312 47.7692H61.1312H60.1312C60.1312 49.165 61.1955 50.3451 62.5983 50.4513L62.6738 49.4542ZM39.6669 6.26795L39.1669 5.40192L8.16693 23.2998L8.66693 24.1658L9.16693 25.0318L40.1669 7.13397L39.6669 6.26795ZM8.66693 24.1658L8.16693 23.2998L3.66699 25.8978L4.16699 26.7638L4.66699 27.6299L9.16693 25.0318L8.66693 24.1658ZM8.66693 24.1658H7.66693V66.1906H8.66693H9.66693V24.1658H8.66693ZM10.6669 68.1906V69.1906H23.1669V68.1906V67.1906H10.6669V68.1906ZM23.1669 68.1906V69.1906H29.1669V68.1906V67.1906H23.1669V68.1906ZM23.1669 68.1906H24.1669V37.6906H23.1669H22.1669V68.1906H23.1669ZM25.1669 35.6906V36.6906H30.1669V35.6906V34.6906H25.1669V35.6906ZM41.6669 6.26795L41.1669 7.13397L72.167 25.0318L72.667 24.1658L73.167 23.2998L42.1669 5.40192L41.6669 6.26795ZM72.667 24.1658L72.167 25.0318L76.6669 27.6299L77.1669 26.7638L77.6669 25.8978L73.167 23.2998L72.667 24.1658ZM72.667 24.1658H71.667V31.1906H72.667H73.667V24.1658H72.667ZM23.1669 37.6906H24.1669C24.1669 37.1383 24.6146 36.6906 25.1669 36.6906V35.6906V34.6906C23.5101 34.6906 22.1669 36.0337 22.1669 37.6906H23.1669ZM8.66693 66.1906H7.66693C7.66693 67.8475 9.01008 69.1906 10.6669 69.1906V68.1906V67.1906C10.1146 67.1906 9.66693 66.7429 9.66693 66.1906H8.66693ZM39.6669 6.26795L40.1669 7.13397C40.4763 6.95534 40.8575 6.95534 41.1669 7.13397L41.6669 6.26795L42.1669 5.40192C41.2387 4.86603 40.0951 4.86603 39.1669 5.40192L39.6669 6.26795Z" fill="#22538B"/>
</svg>
