<svg width="60" height="25" viewBox="0 0 60 25" fill="none" xmlns="http://www.w3.org/2000/svg">
<path d="M6.83164 24.8013C7.41827 22.5884 8.00302 20.3775 8.59523 18.1461C8.33451 18.2703 8.09055 18.3778 7.84287 18.4723C6.91172 18.8244 5.95078 19.0227 4.95073 18.9986C3.89854 18.9727 2.91153 18.7169 2.03439 18.1202C1.01944 17.4308 0.401163 16.4726 0.132993 15.2865C-0.0830325 14.3265 -0.0253014 13.3702 0.22797 12.4251C0.66747 10.7868 1.56509 9.42274 2.79979 8.2737C3.90599 7.24328 5.1798 6.50197 6.64355 6.09795C7.70878 5.80513 8.78705 5.72544 9.87463 5.9571C11.0218 6.20174 11.9865 6.75216 12.7109 7.68436C13.2714 8.40714 13.5694 9.23741 13.6644 10.14C13.7538 10.9851 13.6383 11.8079 13.4148 12.6215C13.1131 13.7242 12.8226 14.8306 12.5284 15.9352C11.8933 18.3296 11.2751 20.7296 10.6177 23.1185C10.3588 24.0581 9.69026 24.6085 8.72373 24.7846C8.71256 24.7864 8.70325 24.7938 8.69207 24.7994C8.07379 24.8013 7.45179 24.8013 6.83164 24.8013ZM3.48325 13.2664C3.48697 13.3295 3.48697 13.4295 3.50001 13.5278C3.61734 14.5044 4.12574 15.1809 5.06433 15.5163C5.58577 15.7016 6.12584 15.7128 6.66218 15.5997C7.95461 15.3254 8.93603 14.6045 9.63998 13.5037C10.0478 12.8643 10.2657 12.1637 10.221 11.3965C10.1614 10.3901 9.52451 9.58397 8.55799 9.29857C8.02723 9.14104 7.49089 9.14104 6.95642 9.26521C5.77945 9.53949 4.86134 10.1993 4.17788 11.1815C3.74956 11.7949 3.50001 12.4751 3.48325 13.2664Z" fill="#1A1F25"/>
<path d="M43.4627 0.802635C43.1685 1.91089 42.8761 3.01915 42.5819 4.12555C42.5558 4.14594 42.5279 4.13667 42.5 4.13667C41.9636 4.13667 41.4255 4.14038 40.8891 4.13667C40.5111 4.13482 40.1722 4.02177 39.9152 3.73266C39.6023 3.38239 39.5464 2.9654 39.6545 2.52618C39.7979 1.94981 39.958 1.3753 40.1107 0.800781C41.2281 0.800781 42.3454 0.800781 43.4627 0.802635Z" fill="#1A1F25"/>
<path d="M59.9999 5.87992C59.9272 6.07266 59.8863 6.27467 59.8341 6.47482C59.6982 6.97706 59.5678 7.48115 59.4356 7.98525C59.4244 8.02787 59.4076 8.05196 59.3555 8.05011C58.646 8.04826 57.9346 8.04826 57.2251 8.04826C57.2139 8.04826 57.2027 8.04455 57.1841 8.0427C57.3796 7.30324 57.5752 6.56934 57.7707 5.82617C58.5138 5.82617 59.2568 5.82617 59.9999 5.82617C59.9999 5.84285 59.9999 5.86138 59.9999 5.87992Z" fill="#1A1F25"/>
<path d="M19.2701 19.0028C18.609 18.9991 17.7151 18.8249 16.8901 18.3764C15.5753 17.6629 14.8043 16.5546 14.5269 15.0998C14.3555 14.201 14.4226 13.3095 14.6591 12.4292C15.0874 10.8354 15.9496 9.49919 17.1359 8.36313C18.1788 7.36606 19.3818 6.63031 20.7618 6.18923C21.5626 5.93348 22.3838 5.80004 23.2256 5.82784C24.3169 5.86305 25.3337 6.14475 26.2257 6.7934C27.2332 7.5273 27.8198 8.52807 28.0396 9.74382C28.2425 10.8632 28.0954 11.9529 27.7118 13.0149C27.155 14.5586 26.2071 15.83 24.9556 16.8827C23.8904 17.7778 22.6892 18.4209 21.3354 18.7693C20.7376 18.925 20.1267 19.001 19.2701 19.0028ZM17.9162 13.2651C17.9199 13.3281 17.9199 13.4281 17.933 13.5264C18.0503 14.503 18.5568 15.1813 19.4936 15.5149C20.015 15.7021 20.5551 15.7132 21.0914 15.6002C22.3875 15.3259 23.3708 14.6031 24.0748 13.4986C24.4807 12.861 24.6968 12.1623 24.6521 11.3988C24.5925 10.3925 23.9574 9.58629 22.9909 9.29903C22.4602 9.1415 21.9238 9.1415 21.3894 9.26567C20.2124 9.53996 19.2943 10.1997 18.609 11.1801C18.1825 11.7935 17.933 12.4737 17.9162 13.2651Z" fill="#1A1F25"/>
<path d="M39.8554 19.0018C39.8461 18.9425 39.8889 18.9221 39.915 18.8961C41.5129 17.3245 43.1107 15.753 44.7085 14.1832C45.2877 13.6143 45.865 13.0453 46.4442 12.4782C46.4908 12.4319 46.5019 12.3985 46.4703 12.3355C45.4274 10.1987 44.3864 8.06 43.3435 5.92131C43.3305 5.89351 43.3193 5.86571 43.3081 5.84162C43.323 5.81938 43.3398 5.82494 43.3547 5.82494C43.932 5.82494 44.5093 5.81938 45.0866 5.8268C45.6248 5.83421 46.1276 5.97506 46.5727 6.28826C46.893 6.51436 47.1407 6.80347 47.3064 7.15745C47.7273 8.05814 48.1743 8.94772 48.6063 9.84285C48.6603 9.95405 48.7143 10.0634 48.7851 10.2079C49.0123 9.97073 49.2227 9.74463 49.4406 9.52779C50.2079 8.76795 50.9845 8.01737 51.7461 7.25011C52.3849 6.60888 53.1205 6.14371 54.0051 5.92502C54.2677 5.86015 54.534 5.82309 54.8059 5.82309C55.3646 5.82124 55.9233 5.82309 56.4819 5.82309C56.5006 5.82309 56.5173 5.82309 56.549 5.82309C56.387 5.98618 56.2361 6.13815 56.0834 6.28826C54.0274 8.30834 51.9733 10.3284 49.9174 12.3485C49.8708 12.3948 49.8634 12.43 49.8932 12.4912C50.9305 14.6169 51.9659 16.7463 53.0032 18.8739C53.0218 18.9109 53.0535 18.9462 53.0237 18.9981C53.005 18.9999 52.9827 19.0018 52.9622 19.0018C52.4035 19.0018 51.8448 19.011 51.2862 18.9999C50.5692 18.9851 49.936 18.7571 49.435 18.2252C49.2618 18.0418 49.1333 17.8268 49.0253 17.6007C48.556 16.6259 48.083 15.6547 47.6119 14.6818C47.6081 14.6744 47.6007 14.6669 47.5951 14.6577C47.5634 14.6595 47.5504 14.6855 47.5318 14.704C46.5895 15.6306 45.6397 16.5499 44.7067 17.4858C44.2839 17.9102 43.8314 18.2864 43.2932 18.557C42.6973 18.8554 42.0678 19.0147 41.3974 19.0055C40.8834 18.9943 40.3713 19.0018 39.8554 19.0018Z" fill="#1A1F25"/>
<path d="M27.369 18.998C27.4379 18.7367 27.5031 18.4847 27.5701 18.2308C27.7508 17.5488 27.9333 16.8668 28.1139 16.1848C28.2964 15.4972 28.4771 14.8078 28.6596 14.1202C28.9706 12.9434 29.2834 11.7665 29.5963 10.5897C29.7304 10.0838 29.8552 9.5741 30.0023 9.07187C30.2332 8.28607 30.6802 7.62816 31.2817 7.07588C31.9223 6.48654 32.6635 6.08253 33.5257 5.91202C33.6971 5.87867 33.8684 5.85643 34.0416 5.84901C35.2037 5.80083 36.3657 5.83975 37.5296 5.82863C37.5352 5.82863 37.5408 5.83048 37.5613 5.83604C37.2671 6.94245 36.9747 8.04886 36.6823 9.15341C36.6488 9.17194 36.6134 9.16268 36.5817 9.16268C36.092 9.16268 35.6003 9.16268 35.1105 9.16268C34.1757 9.16638 33.5164 9.62229 33.0564 10.4025C32.9093 10.6509 32.859 10.9326 32.7864 11.2068C32.4791 12.3596 32.1719 13.5123 31.8664 14.6651C31.5387 15.9049 31.2109 17.1447 30.885 18.3846C30.831 18.5903 30.7751 18.7942 30.7193 18.9999C29.6038 18.998 28.4938 18.998 27.369 18.998Z" fill="#1A1F25"/>
<path d="M38.7811 5.82674C39.3808 5.82674 39.9711 5.81006 40.5615 5.83045C41.3343 5.85639 41.8483 6.49021 41.7366 7.25191C41.6826 7.62813 41.5597 7.98952 41.4628 8.35461C40.6546 11.4107 39.8426 14.4667 39.0325 17.5228C38.9077 17.9898 38.7848 18.4587 38.6601 18.9257C38.6545 18.9498 38.6452 18.9721 38.6396 18.9961C37.5222 18.9961 36.4085 18.9961 35.2893 18.9961C36.4532 14.6057 37.6153 10.219 38.7811 5.82674Z" fill="#1A1F25"/>
</svg>
