<svg width="18" height="10" viewBox="0 0 18 10" fill="none" xmlns="http://www.w3.org/2000/svg">
<mask id="path-1-inside-1_2068_2216" fill="white">
<path d="M7.9375 9.24707C8.33125 9.65864 8.98902 9.65858 9.38281 9.24707L17.3203 0.943359H0L7.9375 9.24707Z"/>
</mask>
<path d="M7.9375 9.24707C8.33125 9.65864 8.98902 9.65858 9.38281 9.24707L17.3203 0.943359H0L7.9375 9.24707Z" fill="white"/>
<path d="M7.9375 9.24707L7.21492 9.93836L7.21463 9.93806L7.9375 9.24707ZM9.38281 9.24707L10.1057 9.93806L10.1053 9.93846L9.38281 9.24707ZM17.3203 0.943359V-0.0566406H19.6596L18.0432 1.63435L17.3203 0.943359ZM0 0.943359L-0.722867 1.63435L-2.33928 -0.0566406H0V0.943359ZM7.9375 9.24707L8.66008 8.55578L8.66033 8.55568L9.38281 9.24707L10.1053 9.93846C9.31783 10.7613 8.00256 10.7616 7.21492 9.93836L7.9375 9.24707ZM9.38281 9.24707L8.65995 8.55608L16.5974 0.252372L17.3203 0.943359L18.0432 1.63435L10.1057 9.93806L9.38281 9.24707ZM17.3203 0.943359V1.94336H0V0.943359V-0.0566406H17.3203V0.943359ZM0 0.943359L0.722867 0.252372L8.66037 8.55608L7.9375 9.24707L7.21463 9.93806L-0.722867 1.63435L0 0.943359Z" fill="#E9EEF4" mask="url(#path-1-inside-1_2068_2216)"/>
</svg>
